<mxfile host="app.diagrams.net" modified="2024-03-03T19:29:46.730Z" agent="Mozilla/5.0 (Windows NT 10.0; Win64; x64) AppleWebKit/537.36 (KHTML, like Gecko) Chrome/120.0.0.0 YaBrowser/24.1.0.0 Safari/537.36" etag="DesNOX3CxGb7p8G1Pi2v" version="24.0.1" type="device">
  <diagram id="R2lEEEUBdFMjLlhIrx00" name="Page-1">
    <mxGraphModel dx="1386" dy="791" grid="1" gridSize="10" guides="1" tooltips="1" connect="1" arrows="1" fold="1" page="1" pageScale="1" pageWidth="850" pageHeight="1100" math="0" shadow="0" extFonts="Permanent Marker^https://fonts.googleapis.com/css?family=Permanent+Marker">
      <root>
        <mxCell id="0" />
        <mxCell id="1" parent="0" />
        <mxCell id="hTlKo507rLQ-u3xxStY1-4" value="" style="edgeStyle=orthogonalEdgeStyle;rounded=0;orthogonalLoop=1;jettySize=auto;html=1;" edge="1" parent="1" source="hTlKo507rLQ-u3xxStY1-2" target="hTlKo507rLQ-u3xxStY1-3">
          <mxGeometry relative="1" as="geometry" />
        </mxCell>
        <mxCell id="hTlKo507rLQ-u3xxStY1-2" value="&amp;nbsp; Клиент" style="rounded=0;whiteSpace=wrap;html=1;" vertex="1" parent="1">
          <mxGeometry x="100" y="230" width="120" height="60" as="geometry" />
        </mxCell>
        <mxCell id="hTlKo507rLQ-u3xxStY1-6" value="" style="edgeStyle=orthogonalEdgeStyle;rounded=0;orthogonalLoop=1;jettySize=auto;html=1;" edge="1" parent="1" source="hTlKo507rLQ-u3xxStY1-3" target="hTlKo507rLQ-u3xxStY1-5">
          <mxGeometry relative="1" as="geometry" />
        </mxCell>
        <mxCell id="hTlKo507rLQ-u3xxStY1-3" value="Приходит в&amp;nbsp;" style="rhombus;whiteSpace=wrap;html=1;rounded=0;" vertex="1" parent="1">
          <mxGeometry x="320" y="220" width="200" height="80" as="geometry" />
        </mxCell>
        <mxCell id="hTlKo507rLQ-u3xxStY1-5" value="Салон красоты" style="whiteSpace=wrap;html=1;rounded=0;" vertex="1" parent="1">
          <mxGeometry x="640" y="230" width="120" height="60" as="geometry" />
        </mxCell>
        <mxCell id="hTlKo507rLQ-u3xxStY1-7" value="N" style="text;html=1;align=center;verticalAlign=middle;whiteSpace=wrap;rounded=0;" vertex="1" parent="1">
          <mxGeometry x="220" y="230" width="60" height="30" as="geometry" />
        </mxCell>
        <mxCell id="hTlKo507rLQ-u3xxStY1-8" value="1" style="text;html=1;align=center;verticalAlign=middle;whiteSpace=wrap;rounded=0;" vertex="1" parent="1">
          <mxGeometry x="580" y="230" width="60" height="30" as="geometry" />
        </mxCell>
        <mxCell id="hTlKo507rLQ-u3xxStY1-12" style="edgeStyle=orthogonalEdgeStyle;rounded=0;orthogonalLoop=1;jettySize=auto;html=1;entryX=0.5;entryY=1;entryDx=0;entryDy=0;" edge="1" parent="1" source="hTlKo507rLQ-u3xxStY1-11" target="hTlKo507rLQ-u3xxStY1-5">
          <mxGeometry relative="1" as="geometry" />
        </mxCell>
        <mxCell id="hTlKo507rLQ-u3xxStY1-11" value="Работает в" style="rhombus;whiteSpace=wrap;html=1;" vertex="1" parent="1">
          <mxGeometry x="610" y="350" width="180" height="80" as="geometry" />
        </mxCell>
        <mxCell id="hTlKo507rLQ-u3xxStY1-16" style="edgeStyle=orthogonalEdgeStyle;rounded=0;orthogonalLoop=1;jettySize=auto;html=1;entryX=0;entryY=0.5;entryDx=0;entryDy=0;" edge="1" parent="1" source="hTlKo507rLQ-u3xxStY1-15" target="hTlKo507rLQ-u3xxStY1-11">
          <mxGeometry relative="1" as="geometry" />
        </mxCell>
        <mxCell id="hTlKo507rLQ-u3xxStY1-20" value="" style="edgeStyle=orthogonalEdgeStyle;rounded=0;orthogonalLoop=1;jettySize=auto;html=1;" edge="1" parent="1" source="hTlKo507rLQ-u3xxStY1-15" target="hTlKo507rLQ-u3xxStY1-19">
          <mxGeometry relative="1" as="geometry" />
        </mxCell>
        <mxCell id="hTlKo507rLQ-u3xxStY1-15" value="Мастер" style="rounded=0;whiteSpace=wrap;html=1;" vertex="1" parent="1">
          <mxGeometry x="365" y="360" width="120" height="60" as="geometry" />
        </mxCell>
        <mxCell id="hTlKo507rLQ-u3xxStY1-17" value="1" style="text;html=1;align=center;verticalAlign=middle;whiteSpace=wrap;rounded=0;" vertex="1" parent="1">
          <mxGeometry x="680" y="310" width="60" height="30" as="geometry" />
        </mxCell>
        <mxCell id="hTlKo507rLQ-u3xxStY1-18" value="K" style="text;html=1;align=center;verticalAlign=middle;whiteSpace=wrap;rounded=0;" vertex="1" parent="1">
          <mxGeometry x="490" y="360" width="60" height="30" as="geometry" />
        </mxCell>
        <mxCell id="hTlKo507rLQ-u3xxStY1-21" style="edgeStyle=orthogonalEdgeStyle;rounded=0;orthogonalLoop=1;jettySize=auto;html=1;exitX=0.5;exitY=0;exitDx=0;exitDy=0;entryX=0.5;entryY=1;entryDx=0;entryDy=0;" edge="1" parent="1" source="hTlKo507rLQ-u3xxStY1-19" target="hTlKo507rLQ-u3xxStY1-2">
          <mxGeometry relative="1" as="geometry" />
        </mxCell>
        <mxCell id="hTlKo507rLQ-u3xxStY1-19" value="Обслуживает" style="rhombus;whiteSpace=wrap;html=1;rounded=0;" vertex="1" parent="1">
          <mxGeometry x="77.5" y="350" width="165" height="80" as="geometry" />
        </mxCell>
        <mxCell id="hTlKo507rLQ-u3xxStY1-22" value="1" style="text;html=1;align=center;verticalAlign=middle;whiteSpace=wrap;rounded=0;" vertex="1" parent="1">
          <mxGeometry x="305" y="360" width="60" height="30" as="geometry" />
        </mxCell>
        <mxCell id="hTlKo507rLQ-u3xxStY1-23" value="M" style="text;html=1;align=center;verticalAlign=middle;whiteSpace=wrap;rounded=0;" vertex="1" parent="1">
          <mxGeometry x="150" y="300" width="60" height="30" as="geometry" />
        </mxCell>
      </root>
    </mxGraphModel>
  </diagram>
</mxfile>
